HIERARCHY
ROOT Hips
{
	OFFSET 0.000000 0.000000 0.000000
	CHANNELS 6 Xposition Yposition Zposition Xrotation Yrotation Zrotation
	JOINT Chest
	{
		OFFSET 0.000000 0.009282 11.569106
		CHANNELS 3 Xrotation Yrotation Zrotation
		JOINT Chest2
		{
			OFFSET 0.000000 -0.016863 9.269641
			CHANNELS 3 Xrotation Yrotation Zrotation
			JOINT Chest3
			{
				OFFSET 0.000000 0.000000 8.374491
				CHANNELS 3 Xrotation Yrotation Zrotation
				JOINT Chest4
				{
					OFFSET 0.000000 0.000000 8.374493
					CHANNELS 3 Xrotation Yrotation Zrotation
					JOINT Neck
					{
						OFFSET 0.000000 -0.000001 12.152554
						CHANNELS 3 Xrotation Yrotation Zrotation
						JOINT Head
						{
							OFFSET 0.000000 -0.040100 7.802319
							CHANNELS 3 Xrotation Yrotation Zrotation
							End Site
							{
								OFFSET 0.000000 -0.020946 14.853096
							}
						}
					}
					JOINT RightCollar
					{
						OFFSET -2.894404 0.000000 6.791374
						CHANNELS 3 Xrotation Yrotation Zrotation
						JOINT RightShoulder
						{
							OFFSET -13.574684 0.000000 0.000000
							CHANNELS 3 Xrotation Yrotation Zrotation
							JOINT RightElbow
							{
								OFFSET -23.923903 0.000000 0.000000
								CHANNELS 3 Xrotation Yrotation Zrotation
								JOINT RightWrist
								{
									OFFSET -19.846718 -0.012765 0.000000
									CHANNELS 3 Xrotation Yrotation Zrotation
									End Site
									{
										OFFSET -14.973145 0.000000 0.000000
									}
								}
							}
						}
					}
					JOINT LeftCollar
					{
						OFFSET 2.894404 0.000000 6.791374
						CHANNELS 3 Xrotation Yrotation Zrotation
						JOINT LeftShoulder
						{
							OFFSET 13.574684 0.000000 0.000000
							CHANNELS 3 Xrotation Yrotation Zrotation
							JOINT LeftElbow
							{
								OFFSET 23.923903 0.000000 0.000000
								CHANNELS 3 Xrotation Yrotation Zrotation
								JOINT LeftWrist
								{
									OFFSET 19.846718 -0.012765 0.000000
									CHANNELS 3 Xrotation Yrotation Zrotation
									End Site
									{
										OFFSET 14.973145 0.000000 0.000000
									}
								}
							}
						}
					}
				}
			}
		}
	}
	JOINT RightHip
	{
		OFFSET -9.469263 -0.004642 0.045487
		CHANNELS 3 Xrotation Yrotation Zrotation
		JOINT RightKnee
		{
			OFFSET 0.000000 -0.002666 -40.478676
			CHANNELS 3 Xrotation Yrotation Zrotation
			JOINT RightAnkle
			{
				OFFSET 0.000000 -0.049110 -35.224068
				CHANNELS 3 Xrotation Yrotation Zrotation
				JOINT RightToe
				{
					OFFSET 0.000000 -12.539530 -6.151390
					CHANNELS 3 Xrotation Yrotation Zrotation
					End Site
					{
						OFFSET 0.000000 -5.044995 -1.291870
					}
				}
			}
		}
	}
	JOINT LeftHip
	{
		OFFSET 9.469263 -0.004642 0.045487
		CHANNELS 3 Xrotation Yrotation Zrotation
		JOINT LeftKnee
		{
			OFFSET 0.000000 -0.002666 -40.478676
			CHANNELS 3 Xrotation Yrotation Zrotation
			JOINT LeftAnkle
			{
				OFFSET 0.000000 -0.049110 -35.224068
				CHANNELS 3 Xrotation Yrotation Zrotation
				JOINT LeftToe
				{
					OFFSET 0.000000 -12.539530 -6.151390
					CHANNELS 3 Xrotation Yrotation Zrotation
					End Site
					{
						OFFSET 0.000000 -5.044995 -1.291870
					}
				}
			}
		}
	}
}
MOTION
Frames: 5
Frame Time: 0.016667
-11.472771 -6.655310 83.021851 2.619299 6.265006 -108.629794 4.471819 -0.548844 5.311657 1.978925 -0.305215 2.328712 1.978926 -0.305215 2.328709 1.483053 -0.236459 1.745564 15.792649 -1.536059 -1.430098 -6.882335 -2.274663 -3.164130 -3.512428 -9.098463 -11.746138 -35.024192 -73.131436 -25.534937 17.842751 1.075595 2.204432 0.723458 11.766576 10.521220 1.635775 11.036877 -13.316299 -17.763507 74.423005 8.695279 0.616877 -2.684789 1.809892 23.583595 -10.257441 -8.392224 10.183972 0.475763 -4.057571 1.666420 -0.935459 -1.879664 -4.771406 -0.253734 2.012209 -0.029434 -0.000035 -0.028626 9.674384 0.133561 -0.680939 1.091617 -0.287096 -2.890765 -4.195739 -0.116992 3.239088 0.062604 -0.077376 0.032833 
-11.478774 -6.671363 83.023277 2.621044 6.264295 -108.607173 4.495725 -0.551798 5.314552 1.989338 -0.305930 2.330387 1.989338 -0.305930 2.330384 1.490858 -0.237040 1.746812 15.780179 -1.502160 -1.345631 -6.904342 -2.243489 -2.998172 -3.543138 -9.087107 -11.800838 -35.210773 -73.059269 -25.556848 17.276407 1.055786 2.342007 0.921611 12.776763 10.661067 1.659273 10.963403 -13.285696 -18.284679 74.510691 8.996135 -0.675707 -2.969140 1.979524 23.360837 -11.310143 -8.529182 10.174230 0.482109 -4.062745 1.690544 -0.932151 -1.891197 -4.781280 -0.262754 2.004591 -0.029278 -0.002268 -0.027232 9.666942 0.133956 -0.682626 1.104803 -0.278331 -2.911697 -4.201737 -0.121180 3.229241 0.062461 -0.074124 0.032871 
-11.484134 -6.684644 83.024673 2.625076 6.268237 -108.586928 4.517734 -0.557811 5.316531 1.998984 -0.308268 2.331204 1.998984 -0.308268 2.331202 1.498085 -0.238834 1.747411 15.768450 -1.470561 -1.261665 -6.925068 -2.216366 -2.833963 -3.567242 -9.073894 -11.839258 -35.435431 -73.008507 -25.654664 16.572441 0.978703 2.485489 1.084354 14.152943 10.874190 1.684202 10.909269 -13.248064 -18.735007 74.587107 9.248555 -1.984233 -3.211353 2.146232 22.676139 -12.563775 -8.730976 10.163765 0.488747 -4.077323 1.726997 -0.932169 -1.883983 -4.796431 -0.267536 1.997278 -0.029878 -0.004362 -0.026606 9.661701 0.133052 -0.667341 1.124542 -0.270013 -2.935587 -4.210967 -0.125425 3.207827 0.061965 -0.069959 0.032761 
-11.489938 -6.696269 83.025459 2.629800 6.274993 -108.564231 4.532079 -0.566342 5.317368 2.005067 -0.311758 2.330814 2.005067 -0.311758 2.330817 1.502634 -0.241473 1.747105 15.762840 -1.441291 -1.176834 -6.934446 -2.193946 -2.668921 -3.584569 -9.066937 -11.845715 -35.649175 -72.979287 -25.803828 16.081207 0.938552 2.615217 1.052344 15.917826 11.265706 1.726102 10.870244 -13.205951 -18.957354 74.660190 9.294532 -3.229136 -3.421439 2.302807 21.674487 -13.983698 -9.007312 10.151053 0.500861 -4.110726 1.778802 -0.945004 -1.864447 -4.821235 -0.265552 1.996482 -0.030326 -0.005481 -0.027694 9.653778 0.134478 -0.649383 1.155483 -0.262463 -2.943388 -4.227920 -0.131497 3.209029 0.063213 -0.065866 0.033821 
-11.495457 -6.711980 83.025627 2.632308 6.284019 -108.537839 4.546632 -0.570785 5.316948 2.011707 -0.313856 2.330069 2.011707 -0.313856 2.330068 1.507606 -0.243069 1.746534 15.753410 -1.411966 -1.089956 -6.950907 -2.172116 -2.500196 -3.576935 -9.056501 -11.849867 -35.822922 -72.995174 -25.923081 16.122931 1.002711 2.685914 0.791203 18.054287 12.026624 1.750629 10.844522 -13.166133 -18.914124 74.716027 9.119207 -4.308100 -3.600337 2.462464 20.572263 -15.530038 -9.427730 10.132112 0.524621 -4.138833 1.846655 -0.971479 -1.860399 -4.855579 -0.259862 1.999000 -0.029138 -0.006289 -0.029707 9.646549 0.133725 -0.633899 1.189285 -0.253867 -2.951484 -4.247399 -0.135222 3.148784 0.064634 -0.061793 0.034066 
